<?xml version="1.0" encoding="UTF-8"?>
<svg width="640px" height="250px" viewBox="0 0 640 250" version="1.1" xmlns="http://www.w3.org/2000/svg" xmlns:xlink="http://www.w3.org/1999/xlink">
    <title>website_header</title>
    <g id="website_header" stroke="none" stroke-width="1" fill="none" fill-rule="evenodd">
        <g id="Hello!" transform="translate(42.419540, 24.000000)" fill="#4B5563" fill-rule="nonzero">
            <path d="M113.16885,130.451937 L171.34827,130.451937 L195.035605,17.1994261 L209.58046,10 L170.24009,196.492826 L161.6517,196.492826 C159.527689,190.124103 156.734154,183.893831 153.271093,177.802009 C149.808032,171.710187 145.721621,165.77989 141.011858,160.011119 C136.302096,154.242348 131.430724,149.142755 126.397742,144.712339 C121.364761,140.281923 116.354866,136.86681 111.368059,134.467001 L110.952491,135.159254 C105.688639,147.250598 99.2935205,158.026662 91.7671352,167.487446 C84.24075,176.948231 76.5065811,184.124582 68.5646286,189.016499 C63.9472144,191.87781 58.6602751,194.369919 52.7038107,196.492826 C46.7473463,198.615734 40.5138371,200.23099 34.003283,201.338594 C27.4927289,202.446198 20.9129136,203 14.2638371,203 C9.73877112,203 4.84431201,202.538498 -0.41954023,201.615495 L4.01317745,190.677905 C14.6332302,194.093018 24.0065811,195.800574 32.1332302,195.800574 C42.2915416,195.800574 51.9881115,193.170014 61.22294,187.908895 C70.4577685,182.647776 78.076502,175.4945 84.0791405,166.449067 C92.4828344,153.803922 100.193916,136.589909 107.212386,114.80703 C108.412914,111.207317 110.213705,105.115495 112.614761,96.5315638 C115.015816,87.9476327 117.209088,79.6867527 119.194576,71.748924 C121.180064,63.8110952 122.726898,57.2116212 123.835077,51.9505022 L128.683362,27.3063128 L129.098929,24.6757532 L144.751964,16.9225251 C143.828481,24.3065519 142.212386,33.0289335 139.903679,43.08967 C137.594972,53.1504065 134.939958,63.5341942 131.938639,74.241033 C128.93732,84.9478718 125.774391,95.4008847 122.449853,105.600072 C119.125315,115.799259 116.123995,123.852463 113.445895,129.759684 L113.16885,130.451937 Z M170.24009,135.159254 L122.86542,135.159254 C129.3298,140.143472 136.302096,146.719871 143.782307,154.888451 C151.262518,163.05703 157.172808,170.602582 161.513177,177.525108 L170.24009,135.159254 Z" id="Shape"></path>
            <path d="M247.09334,173.492411 L249.58046,175.56661 C243.869297,183.125913 238.296307,188.587971 232.86149,191.952782 C227.426674,195.317594 221.577337,197 215.313481,197 C207.852123,197 201.864613,194.510961 197.350952,189.532884 C192.83729,184.554806 190.58046,177.963463 190.58046,169.758853 C190.58046,161.462057 192.768204,153.050028 197.143692,144.522766 C201.51918,135.995503 207.000054,128.943227 213.586315,123.365936 C220.172575,117.788645 226.689749,115 233.137837,115 C236.914574,115 240.023473,116.106239 242.464535,118.318718 C244.905596,120.531197 246.126127,123.388983 246.126127,126.892074 C246.126127,133.990444 242.257275,141.088814 234.51957,148.187184 C226.781865,155.285554 216.234636,161.323777 202.877884,166.301855 C202.785768,167.039348 202.73971,167.869028 202.73971,168.790894 C202.73971,175.151771 204.489906,180.337268 207.990296,184.347386 C211.490686,188.357504 216.004347,190.362563 221.531279,190.362563 C225.86071,190.362563 230.051966,189.002811 234.10505,186.283305 C238.158133,183.5638 242.487564,179.300169 247.09334,173.492411 Z M202.877884,162.983137 C212.826361,158.558179 220.471951,153.626194 225.814652,148.187184 C229.407158,144.499719 232.308797,140.535694 234.51957,136.29511 C236.730343,132.054525 237.835729,128.22878 237.835729,124.817875 C237.835729,120.485104 235.855245,118.318718 231.894277,118.318718 C225.906767,118.318718 219.850171,123.043283 213.724488,132.492411 C207.598805,141.94154 203.98327,152.105115 202.877884,162.983137 Z" id="Shape"></path>
            <path d="M301.58046,0 L264.654958,159.958451 L263.391348,165.369014 C262.174538,170.455869 261.566133,174.756573 261.566133,178.271127 C261.566133,181.138263 262.104338,183.473592 263.180746,185.277113 C264.257155,187.080634 265.590966,187.982394 267.182179,187.982394 C270.083803,187.982394 274.71704,184.560329 281.081892,177.716197 L283.328311,179.658451 L281.924299,181.184507 C276.589056,187.381221 272.657824,191.566315 270.130603,193.739789 C267.603382,195.913263 265.263363,197 263.110546,197 C260.302523,197 257.845503,195.450822 255.739486,192.352465 C253.633468,189.254108 252.58046,185.716432 252.58046,181.739437 C252.58046,178.964789 253.188865,174.571596 254.405675,168.559859 L286.838339,7.07535211 L301.58046,0 Z" id="Path"></path>
            <path d="M329.58046,0 L292.654958,159.958451 L291.391348,165.369014 C290.174538,170.455869 289.566133,174.756573 289.566133,178.271127 C289.566133,181.138263 290.104338,183.473592 291.180746,185.277113 C292.257155,187.080634 293.590966,187.982394 295.182179,187.982394 C298.083803,187.982394 302.71704,184.560329 309.081892,177.716197 L311.328311,179.658451 L309.924299,181.184507 C304.589056,187.381221 300.657824,191.566315 298.130603,193.739789 C295.603382,195.913263 293.263363,197 291.110546,197 C288.302523,197 285.845503,195.450822 283.739486,192.352465 C281.633468,189.254108 280.58046,185.716432 280.58046,181.739437 C280.58046,178.964789 281.188865,174.571596 282.405675,168.559859 L314.838339,7.07535211 L329.58046,0 Z" id="Path"></path>
            <path d="M306.58046,167.952542 C306.58046,159.613559 308.827564,151.29774 313.321773,143.005085 C317.815981,134.712429 323.630653,127.971751 330.765788,122.783051 C337.900923,117.59435 345.175054,115 352.588182,115 C360.371966,115 366.649958,117.571186 371.422159,122.713559 C376.194359,127.855932 378.58046,134.503955 378.58046,142.657627 C378.58046,151.552542 376.379688,160.169492 371.978143,168.508475 C367.576599,176.847458 361.785093,183.680791 354.603626,189.008475 C347.422159,194.336158 340.171193,197 332.85073,197 C324.974282,197 318.626792,194.336158 313.808259,189.008475 C308.989726,183.680791 306.58046,176.662147 306.58046,167.952542 Z M366.070807,137.376271 C366.070807,131.816949 364.704012,127.230508 361.970421,123.616949 C359.23683,120.00339 355.738761,118.19661 351.476213,118.19661 C347.584321,118.19661 343.854591,119.447458 340.287023,121.949153 C336.719456,124.450847 333.453047,128.110734 330.487796,132.928814 C327.151888,138.488136 324.395132,144.974011 322.217525,152.386441 C320.039919,159.79887 318.951116,166.377401 318.951116,172.122034 C318.951116,178.978531 320.294745,184.259887 322.982004,187.966102 C325.669263,191.672316 329.514823,193.525424 334.518684,193.525424 C342.58046,193.525424 349.669263,187.919774 355.785093,176.708475 C358.935672,170.963842 361.437603,164.524294 363.290884,157.389831 C365.144166,150.255367 366.070807,143.584181 366.070807,137.376271 Z" id="Shape"></path>
            <path d="M442.58046,20 L406.918226,162.176977 L402.971417,163.989037 L423.833119,28.3633516 L442.58046,20 Z M401.13897,175.418951 C404.427978,175.418951 407.153155,176.487601 409.314502,178.624902 C411.47585,180.762203 412.556524,183.457061 412.556524,186.709475 C412.556524,189.96189 411.47585,192.656748 409.314502,194.794049 C407.153155,196.93135 404.427978,198 401.13897,198 C397.943935,198 395.218758,196.93135 392.963438,194.794049 C390.708119,192.656748 389.58046,189.96189 389.58046,186.709475 C389.58046,183.457061 390.708119,180.762203 392.963438,178.624902 C395.218758,176.487601 397.943935,175.418951 401.13897,175.418951 Z" id="Shape"></path>
        </g>
    </g>
</svg>